<svg height="512" viewBox="0 0 64 64" width="512" xmlns="http://www.w3.org/2000/svg"><g id="Layer_5" data-name="Layer 5"><path d="m31 50h2v10h-2z" fill="#a0a8b2"/><path d="m28 48a4 4 0 0 0 4 4 4 4 0 0 0 4-4z" fill="#c1c8d1"/><path d="m4 10h56v34h-56z" fill="#c7e2fb"/><path d="m4 10v28.82a42.58 42.58 0 0 0 10 1.18c19.48 0 35.63-13 38.53-30z" fill="#ebf7fe"/><path d="m2 6h60v4h-60z" fill="#a0a8b2"/><path d="m2 44h60v4h-60z" fill="#a0a8b2"/><path d="m28 6a4 4 0 0 1 4-4 4 4 0 0 1 4 4z" fill="#c1c8d1"/><circle cx="32" cy="60" fill="#c1c8d1" r="2"/><circle cx="32" cy="27" fill="#e47c6f" r="11"/><path d="m29 21v12l8-6z" fill="#fff"/></g></svg>