<svg id="Layer_1" enable-background="new 0 0 472 472" height="512" viewBox="0 0 472 472" width="512" xmlns="http://www.w3.org/2000/svg"><path d="m282.802 132c16.586 0 30.421 12.678 31.88 29.19l24.35 276c1.65 18.71-13.09 34.81-31.88 34.81h-264.1c-18.79 0-33.53-16.1-31.88-34.81l24.35-276c1.46-16.52 15.3-29.19 31.88-29.19z" fill="#ffaa64"/><path d="m291.442 182.049c-115.465 41.593-190.873 141.868-205.482 257.191-2.372 18.723-18.294 32.76-37.167 32.76h-5.741c-18.79 0-33.53-16.1-31.88-34.81l24.35-276c1.46-16.52 15.3-29.19 31.88-29.19 1.453 0 215.691-.015 216.708.026 27.96 1.128 33.658 40.54 7.332 50.023z" fill="#ffbd7b"/><path d="m250.102 184c-4.418 0-8-3.582-8-8v-93c0-36.944-30.056-67-67-67-37.023 0-67 29.974-67 67v93c0 4.418-3.582 8-8 8s-8-3.582-8-8v-93c0-45.865 37.129-83 83-83 45.767 0 83 37.233 83 83v93c0 4.418-3.582 8-8 8z" fill="#4d4e59"/><path d="m218.367 322.04c-7.97-6.41-7.98-18.54-.01-24.94l30-24.12-4.17-38.25c-1.11-10.17 7.47-18.75 17.63-17.64l38.26 4.16 24.11-30c6.4-7.97 18.54-7.97 24.94-.01l24.11 30 38.26-4.17c10.17-1.11 18.75 7.47 17.64 17.64l-4.16 38.26 30 24.1c7.97 6.41 7.97 18.54 0 24.94l-29.99 24.12 4.17 38.25c1.1 10.17-7.47 18.75-17.64 17.64l-38.26-4.16-24.1 30c-6.41 7.97-18.54 7.97-24.95.01l-24.11-30-38.26 4.17c-10.16 1.1-18.74-7.47-17.63-17.64l4.15-38.26z" fill="#ff6d7a"/><path d="m244.207 384.4 1.678-15.478c.941-8.675 8.665-15.061 17.349-14.207 63.078 6.203 124.733-39.936 117.26-118.479-.826-8.68 5.535-16.391 14.203-17.335l16.801-1.83c10.17-1.11 18.75 7.47 17.64 17.64l-4.16 38.26 30 24.1c7.97 6.41 7.97 18.54 0 24.94l-29.99 24.12 4.17 38.25c1.1 10.17-7.47 18.75-17.64 17.64l-38.26-4.16-24.1 30c-6.41 7.97-18.54 7.97-24.95.01l-24.11-30-38.26 4.17c-10.161 1.099-18.741-7.471-17.631-17.641z" fill="#fe4f60"/><g fill="#fff"><path d="m299.445 347.657c-3.124-3.124-3.124-8.19 0-11.314l60-60c3.125-3.124 8.189-3.124 11.314 0 3.124 3.124 3.124 8.19 0 11.314l-60 60c-3.125 3.124-8.189 3.124-11.314 0z"/><circle cx="367.102" cy="340" r="14"/><circle cx="307.102" cy="280" r="14"/></g></svg>